<svg xmlns="http://www.w3.org/2000/svg" xmlns:xlink="http://www.w3.org/1999/xlink" width="500" zoomAndPan="magnify" viewBox="0 0 375 374.999991" height="500" preserveAspectRatio="xMidYMid meet" version="1.0"><defs><g/><clipPath id="c45a1f8387"><path d="M 165.570312 180.867188 L 209.070312 180.867188 L 209.070312 242.367188 L 165.570312 242.367188 Z M 165.570312 180.867188 " clip-rule="nonzero"/></clipPath></defs><rect x="-37.5" width="450" fill="#ffffff" y="-37.499999" height="449.999989" fill-opacity="1"/><rect x="-37.5" width="450" fill="#ffffff" y="-37.499999" height="449.999989" fill-opacity="1"/><g clip-path="url(#c45a1f8387)"><path fill="#000000" d="M 172.128906 240.273438 C 172.667969 239.441406 183.257812 224.210938 184.160156 222.921875 C 185.0625 221.628906 186.089844 220.160156 187.246094 218.515625 C 188.402344 216.875 189.597656 215.183594 190.832031 213.445312 C 192.066406 211.703125 193.289062 209.988281 194.507812 208.296875 C 195.726562 206.609375 196.832031 205.058594 197.832031 203.65625 C 198.828125 202.25 199.683594 201.0625 200.394531 200.089844 C 201.105469 199.117188 201.574219 198.46875 201.792969 198.148438 C 201.917969 197.925781 202.101562 197.816406 202.34375 197.816406 C 202.589844 197.816406 202.773438 197.910156 202.894531 198.101562 C 203.015625 198.292969 203.078125 198.5 203.078125 198.722656 L 203.078125 227.253906 C 203.078125 227.441406 203 227.613281 202.847656 227.753906 C 202.695312 227.898438 202.527344 227.96875 202.339844 227.96875 C 202.15625 227.96875 201.988281 227.90625 201.835938 227.777344 C 201.683594 227.652344 201.605469 227.476562 201.605469 227.253906 L 201.605469 200.925781 L 172.652344 242.089844 C 172.527344 242.28125 172.335938 242.375 172.082031 242.375 C 171.890625 242.375 171.71875 242.304688 171.558594 242.160156 C 171.402344 242.015625 171.320312 241.851562 171.320312 241.660156 C 171.320312 241.5625 171.59375 241.101562 172.128906 240.273438 Z M 165.839844 190.105469 C 166.011719 189.980469 166.195312 189.917969 166.386719 189.917969 C 166.605469 189.917969 166.78125 190.011719 166.90625 190.203125 L 184.28125 214.804688 L 207.777344 181.203125 C 207.898438 180.980469 208.09375 180.867188 208.371094 180.867188 C 208.582031 180.867188 208.753906 180.941406 208.875 181.085938 C 208.996094 181.226562 209.054688 181.394531 209.054688 181.585938 C 209.054688 181.777344 209.007812 181.9375 208.914062 182.066406 L 176.734375 227.921875 C 176.605469 228.113281 176.417969 228.207031 176.164062 228.207031 C 175.972656 228.207031 175.800781 228.136719 175.640625 227.992188 C 175.484375 227.847656 175.402344 227.664062 175.402344 227.441406 C 175.402344 227.316406 175.585938 226.980469 175.949219 226.4375 C 176.316406 225.894531 176.765625 225.234375 177.304688 224.449219 C 177.839844 223.667969 178.441406 222.839844 179.109375 221.960938 C 179.773438 221.085938 180.398438 220.238281 180.984375 219.425781 C 181.570312 218.609375 182.082031 217.902344 182.527344 217.292969 C 182.96875 216.6875 183.253906 216.273438 183.378906 216.050781 L 167.003906 192.929688 L 167.003906 227.492188 C 167.003906 227.679688 166.941406 227.851562 166.8125 227.992188 C 166.6875 228.136719 166.527344 228.207031 166.339844 228.207031 C 166.148438 228.207031 165.980469 228.136719 165.839844 227.992188 C 165.699219 227.847656 165.628906 227.679688 165.628906 227.492188 L 165.628906 190.871094 C 165.59375 190.839844 165.578125 190.746094 165.578125 190.585938 C 165.578125 190.394531 165.664062 190.234375 165.839844 190.105469 Z M 165.839844 190.105469 " fill-opacity="1" fill-rule="nonzero"/></g><g fill="#000000" fill-opacity="1"><g transform="translate(84.466935, 260.179718)"><g><path d="M 7.640625 0 L 3.171875 -11.6875 L 3.109375 -11.6875 C 3.191406 -10.757812 3.234375 -9.660156 3.234375 -8.390625 L 3.234375 0 L 1.8125 0 L 1.8125 -13.1875 L 4.125 -13.1875 L 8.296875 -2.3125 L 8.375 -2.3125 L 12.578125 -13.1875 L 14.875 -13.1875 L 14.875 0 L 13.34375 0 L 13.34375 -8.5 C 13.34375 -9.46875 13.382812 -10.523438 13.46875 -11.671875 L 13.390625 -11.671875 L 8.875 0 Z M 7.640625 0 "/></g></g></g><g fill="#000000" fill-opacity="1"><g transform="translate(107.441248, 260.179718)"><g><path d="M 10.09375 0 L 8.453125 -4.1875 L 3.171875 -4.1875 L 1.546875 0 L 0 0 L 5.21875 -13.234375 L 6.5 -13.234375 L 11.6875 0 Z M 7.984375 -5.578125 L 6.453125 -9.65625 C 6.253906 -10.175781 6.046875 -10.8125 5.828125 -11.5625 C 5.703125 -10.976562 5.515625 -10.34375 5.265625 -9.65625 L 3.71875 -5.578125 Z M 7.984375 -5.578125 "/></g></g></g><g fill="#000000" fill-opacity="1"><g transform="translate(125.428583, 260.179718)"><g><path d="M 9.34375 -13.1875 L 11 -13.1875 L 6.234375 0 L 4.71875 0 L 0 -13.1875 L 1.625 -13.1875 L 4.65625 -4.65625 C 5 -3.675781 5.273438 -2.722656 5.484375 -1.796875 C 5.703125 -2.765625 5.984375 -3.734375 6.328125 -4.703125 Z M 9.34375 -13.1875 "/></g></g></g><g fill="#000000" fill-opacity="1"><g transform="translate(142.721533, 260.179718)"><g><path d="M 1.8125 0 L 1.8125 -13.1875 L 3.34375 -13.1875 L 3.34375 0 Z M 1.8125 0 "/></g></g></g><g fill="#000000" fill-opacity="1"><g transform="translate(154.170795, 260.179718)"><g><path d="M 10.09375 0 L 8.453125 -4.1875 L 3.171875 -4.1875 L 1.546875 0 L 0 0 L 5.21875 -13.234375 L 6.5 -13.234375 L 11.6875 0 Z M 7.984375 -5.578125 L 6.453125 -9.65625 C 6.253906 -10.175781 6.046875 -10.8125 5.828125 -11.5625 C 5.703125 -10.976562 5.515625 -10.34375 5.265625 -9.65625 L 3.71875 -5.578125 Z M 7.984375 -5.578125 "/></g></g></g><g fill="#000000" fill-opacity="1"><g transform="translate(172.158126, 260.179718)"><g><path d="M 1.8125 0 L 1.8125 -13.1875 L 3.34375 -13.1875 L 3.34375 -1.390625 L 9.15625 -1.390625 L 9.15625 0 Z M 1.8125 0 "/></g></g></g><g fill="#000000" fill-opacity="1"><g transform="translate(188.044267, 260.179718)"><g><path d="M 13.25 -6.609375 C 13.25 -4.492188 12.71875 -2.832031 11.65625 -1.625 C 10.59375 -0.414062 9.109375 0.1875 7.203125 0.1875 C 5.265625 0.1875 3.765625 -0.40625 2.703125 -1.59375 C 1.648438 -2.78125 1.125 -4.457031 1.125 -6.625 C 1.125 -8.769531 1.648438 -10.429688 2.703125 -11.609375 C 3.765625 -12.796875 5.269531 -13.390625 7.21875 -13.390625 C 9.113281 -13.390625 10.59375 -12.785156 11.65625 -11.578125 C 12.71875 -10.378906 13.25 -8.722656 13.25 -6.609375 Z M 2.75 -6.609375 C 2.75 -4.828125 3.128906 -3.472656 3.890625 -2.546875 C 4.648438 -1.617188 5.753906 -1.15625 7.203125 -1.15625 C 8.660156 -1.15625 9.765625 -1.613281 10.515625 -2.53125 C 11.265625 -3.457031 11.640625 -4.816406 11.640625 -6.609375 C 11.640625 -8.378906 11.265625 -9.722656 10.515625 -10.640625 C 9.773438 -11.554688 8.675781 -12.015625 7.21875 -12.015625 C 5.757812 -12.015625 4.648438 -11.550781 3.890625 -10.625 C 3.128906 -9.707031 2.75 -8.367188 2.75 -6.609375 Z M 2.75 -6.609375 "/></g></g></g><g fill="#000000" fill-opacity="1"><g transform="translate(208.728002, 260.179718)"><g/></g></g><g fill="#000000" fill-opacity="1"><g transform="translate(219.825553, 260.179718)"><g><path d="M 9.15625 0 L 1.8125 0 L 1.8125 -13.1875 L 9.15625 -13.1875 L 9.15625 -11.828125 L 3.34375 -11.828125 L 3.34375 -7.578125 L 8.8125 -7.578125 L 8.8125 -6.21875 L 3.34375 -6.21875 L 3.34375 -1.375 L 9.15625 -1.375 Z M 9.15625 0 "/></g></g></g><g fill="#000000" fill-opacity="1"><g transform="translate(236.397064, 260.179718)"><g><path d="M 1.8125 0 L 1.8125 -13.1875 L 3.34375 -13.1875 L 3.34375 -1.390625 L 9.15625 -1.390625 L 9.15625 0 Z M 1.8125 0 "/></g></g></g><g fill="#000000" fill-opacity="1"><g transform="translate(252.283204, 260.179718)"><g><path d="M 1.8125 0 L 1.8125 -13.1875 L 3.34375 -13.1875 L 3.34375 0 Z M 1.8125 0 "/></g></g></g><g fill="#000000" fill-opacity="1"><g transform="translate(263.73247, 260.179718)"><g><path d="M 5.875 0 L 4.34375 0 L 4.34375 -11.828125 L 0.15625 -11.828125 L 0.15625 -13.1875 L 10.046875 -13.1875 L 10.046875 -11.828125 L 5.875 -11.828125 Z M 5.875 0 "/></g></g></g><g fill="#000000" fill-opacity="1"><g transform="translate(280.249865, 260.179718)"><g><path d="M 9.15625 0 L 1.8125 0 L 1.8125 -13.1875 L 9.15625 -13.1875 L 9.15625 -11.828125 L 3.34375 -11.828125 L 3.34375 -7.578125 L 8.8125 -7.578125 L 8.8125 -6.21875 L 3.34375 -6.21875 L 3.34375 -1.375 L 9.15625 -1.375 Z M 9.15625 0 "/></g></g></g><g fill="#000000" fill-opacity="1"><g transform="translate(205.351148, 210.993903)"><g><path d="M -3.0625 16.046875 L -3.0625 8.96875 L -9.828125 8.96875 L -9.828125 8.046875 L -3.0625 8.046875 L -3.0625 0.921875 L -10.5625 0.921875 L -10.5625 0 L -1.984375 0 L -1.984375 16.953125 L -10.5625 16.953125 L -10.5625 16.046875 Z M -3.0625 16.046875 "/></g></g></g></svg>