<svg xmlns="http://www.w3.org/2000/svg" xmlns:xlink="http://www.w3.org/1999/xlink" width="500" zoomAndPan="magnify" viewBox="0 0 375 374.999991" height="500" preserveAspectRatio="xMidYMid meet" version="1.0"><defs><g/><clipPath id="c12c6680f6"><path d="M 171.832031 134.949219 L 215.332031 134.949219 L 215.332031 196.449219 L 171.832031 196.449219 Z M 171.832031 134.949219 " clip-rule="nonzero"/></clipPath></defs><rect x="-37.5" width="450" fill="#ffffff" y="-37.499999" height="449.999989" fill-opacity="1"/><rect x="-37.5" width="450" fill="#000000" y="-37.499999" height="449.999989" fill-opacity="1"/><g clip-path="url(#c12c6680f6)"><path fill="#ffffff" d="M 178.445312 194.332031 C 178.984375 193.5 189.664062 178.277344 190.574219 176.984375 C 191.480469 175.695312 192.519531 174.226562 193.683594 172.585938 C 194.847656 170.941406 196.050781 169.25 197.296875 167.511719 C 198.539062 165.773438 199.777344 164.0625 201.003906 162.371094 C 202.230469 160.679688 203.347656 159.132812 204.355469 157.726562 C 205.359375 156.324219 206.21875 155.136719 206.9375 154.164062 C 207.65625 153.191406 208.128906 152.542969 208.347656 152.226562 C 208.472656 152 208.65625 151.890625 208.902344 151.890625 C 209.148438 151.890625 209.332031 151.984375 209.457031 152.175781 C 209.582031 152.367188 209.640625 152.574219 209.640625 152.796875 L 209.640625 181.316406 C 209.640625 181.507812 209.5625 181.675781 209.410156 181.816406 C 209.257812 181.960938 209.085938 182.035156 208.898438 182.035156 C 208.714844 182.035156 208.546875 181.96875 208.390625 181.84375 C 208.234375 181.714844 208.15625 181.539062 208.15625 181.316406 L 208.15625 155 L 178.96875 196.148438 C 178.84375 196.339844 178.652344 196.433594 178.394531 196.433594 C 178.207031 196.433594 178.03125 196.363281 177.871094 196.21875 C 177.710938 196.074219 177.628906 195.910156 177.628906 195.71875 C 177.628906 195.621094 177.902344 195.160156 178.445312 194.332031 Z M 172.101562 144.1875 C 172.277344 144.058594 172.460938 143.996094 172.652344 143.996094 C 172.878906 143.996094 173.050781 144.089844 173.179688 144.28125 L 190.691406 168.875 L 214.378906 135.285156 C 214.5 135.0625 214.699219 134.949219 214.976562 134.949219 C 215.191406 134.949219 215.363281 135.023438 215.484375 135.164062 C 215.609375 135.308594 215.667969 135.476562 215.667969 135.667969 C 215.667969 135.859375 215.621094 136.019531 215.523438 136.144531 L 183.085938 181.984375 C 182.957031 182.175781 182.765625 182.273438 182.511719 182.273438 C 182.320312 182.273438 182.144531 182.199219 181.984375 182.054688 C 181.824219 181.914062 181.746094 181.730469 181.746094 181.503906 C 181.746094 181.378906 181.929688 181.042969 182.296875 180.5 C 182.664062 179.957031 183.117188 179.296875 183.660156 178.515625 C 184.203125 177.734375 184.808594 176.90625 185.480469 176.027344 C 186.148438 175.152344 186.78125 174.304688 187.371094 173.492188 C 187.960938 172.679688 188.476562 171.96875 188.925781 171.363281 C 189.371094 170.753906 189.65625 170.339844 189.785156 170.117188 L 173.277344 147.007812 L 173.277344 181.554688 C 173.277344 181.746094 173.210938 181.914062 173.085938 182.054688 C 172.957031 182.199219 172.796875 182.273438 172.605469 182.273438 C 172.414062 182.273438 172.246094 182.199219 172.105469 182.054688 C 171.960938 181.914062 171.890625 181.746094 171.890625 181.554688 L 171.890625 144.949219 C 171.855469 144.917969 171.839844 144.824219 171.839844 144.664062 C 171.839844 144.472656 171.929688 144.3125 172.101562 144.1875 Z M 172.101562 144.1875 " fill-opacity="1" fill-rule="nonzero"/></g><g fill="#ffffff" fill-opacity="1"><g transform="translate(90.728527, 214.261352)"><g><path d="M 7.640625 0 L 3.171875 -11.6875 L 3.109375 -11.6875 C 3.191406 -10.757812 3.234375 -9.660156 3.234375 -8.390625 L 3.234375 0 L 1.8125 0 L 1.8125 -13.1875 L 4.125 -13.1875 L 8.296875 -2.3125 L 8.375 -2.3125 L 12.578125 -13.1875 L 14.875 -13.1875 L 14.875 0 L 13.34375 0 L 13.34375 -8.5 C 13.34375 -9.46875 13.382812 -10.523438 13.46875 -11.671875 L 13.390625 -11.671875 L 8.875 0 Z M 7.640625 0 "/></g></g></g><g fill="#ffffff" fill-opacity="1"><g transform="translate(113.70284, 214.261352)"><g><path d="M 10.09375 0 L 8.453125 -4.1875 L 3.171875 -4.1875 L 1.546875 0 L 0 0 L 5.21875 -13.234375 L 6.5 -13.234375 L 11.6875 0 Z M 7.984375 -5.578125 L 6.453125 -9.65625 C 6.253906 -10.175781 6.046875 -10.8125 5.828125 -11.5625 C 5.703125 -10.976562 5.515625 -10.34375 5.265625 -9.65625 L 3.71875 -5.578125 Z M 7.984375 -5.578125 "/></g></g></g><g fill="#ffffff" fill-opacity="1"><g transform="translate(131.690175, 214.261352)"><g><path d="M 9.34375 -13.1875 L 11 -13.1875 L 6.234375 0 L 4.71875 0 L 0 -13.1875 L 1.625 -13.1875 L 4.65625 -4.65625 C 5 -3.675781 5.273438 -2.722656 5.484375 -1.796875 C 5.703125 -2.765625 5.984375 -3.734375 6.328125 -4.703125 Z M 9.34375 -13.1875 "/></g></g></g><g fill="#ffffff" fill-opacity="1"><g transform="translate(148.983126, 214.261352)"><g><path d="M 1.8125 0 L 1.8125 -13.1875 L 3.34375 -13.1875 L 3.34375 0 Z M 1.8125 0 "/></g></g></g><g fill="#ffffff" fill-opacity="1"><g transform="translate(160.432388, 214.261352)"><g><path d="M 10.09375 0 L 8.453125 -4.1875 L 3.171875 -4.1875 L 1.546875 0 L 0 0 L 5.21875 -13.234375 L 6.5 -13.234375 L 11.6875 0 Z M 7.984375 -5.578125 L 6.453125 -9.65625 C 6.253906 -10.175781 6.046875 -10.8125 5.828125 -11.5625 C 5.703125 -10.976562 5.515625 -10.34375 5.265625 -9.65625 L 3.71875 -5.578125 Z M 7.984375 -5.578125 "/></g></g></g><g fill="#ffffff" fill-opacity="1"><g transform="translate(178.419719, 214.261352)"><g><path d="M 1.8125 0 L 1.8125 -13.1875 L 3.34375 -13.1875 L 3.34375 -1.390625 L 9.15625 -1.390625 L 9.15625 0 Z M 1.8125 0 "/></g></g></g><g fill="#ffffff" fill-opacity="1"><g transform="translate(194.305859, 214.261352)"><g><path d="M 13.25 -6.609375 C 13.25 -4.492188 12.71875 -2.832031 11.65625 -1.625 C 10.59375 -0.414062 9.109375 0.1875 7.203125 0.1875 C 5.265625 0.1875 3.765625 -0.40625 2.703125 -1.59375 C 1.648438 -2.78125 1.125 -4.457031 1.125 -6.625 C 1.125 -8.769531 1.648438 -10.429688 2.703125 -11.609375 C 3.765625 -12.796875 5.269531 -13.390625 7.21875 -13.390625 C 9.113281 -13.390625 10.59375 -12.785156 11.65625 -11.578125 C 12.71875 -10.378906 13.25 -8.722656 13.25 -6.609375 Z M 2.75 -6.609375 C 2.75 -4.828125 3.128906 -3.472656 3.890625 -2.546875 C 4.648438 -1.617188 5.753906 -1.15625 7.203125 -1.15625 C 8.660156 -1.15625 9.765625 -1.613281 10.515625 -2.53125 C 11.265625 -3.457031 11.640625 -4.816406 11.640625 -6.609375 C 11.640625 -8.378906 11.265625 -9.722656 10.515625 -10.640625 C 9.773438 -11.554688 8.675781 -12.015625 7.21875 -12.015625 C 5.757812 -12.015625 4.648438 -11.550781 3.890625 -10.625 C 3.128906 -9.707031 2.75 -8.367188 2.75 -6.609375 Z M 2.75 -6.609375 "/></g></g></g><g fill="#ffffff" fill-opacity="1"><g transform="translate(214.989595, 214.261352)"><g/></g></g><g fill="#ffffff" fill-opacity="1"><g transform="translate(226.087146, 214.261352)"><g><path d="M 9.15625 0 L 1.8125 0 L 1.8125 -13.1875 L 9.15625 -13.1875 L 9.15625 -11.828125 L 3.34375 -11.828125 L 3.34375 -7.578125 L 8.8125 -7.578125 L 8.8125 -6.21875 L 3.34375 -6.21875 L 3.34375 -1.375 L 9.15625 -1.375 Z M 9.15625 0 "/></g></g></g><g fill="#ffffff" fill-opacity="1"><g transform="translate(242.658657, 214.261352)"><g><path d="M 1.8125 0 L 1.8125 -13.1875 L 3.34375 -13.1875 L 3.34375 -1.390625 L 9.15625 -1.390625 L 9.15625 0 Z M 1.8125 0 "/></g></g></g><g fill="#ffffff" fill-opacity="1"><g transform="translate(258.544797, 214.261352)"><g><path d="M 1.8125 0 L 1.8125 -13.1875 L 3.34375 -13.1875 L 3.34375 0 Z M 1.8125 0 "/></g></g></g><g fill="#ffffff" fill-opacity="1"><g transform="translate(269.994062, 214.261352)"><g><path d="M 5.875 0 L 4.34375 0 L 4.34375 -11.828125 L 0.15625 -11.828125 L 0.15625 -13.1875 L 10.046875 -13.1875 L 10.046875 -11.828125 L 5.875 -11.828125 Z M 5.875 0 "/></g></g></g><g fill="#ffffff" fill-opacity="1"><g transform="translate(286.511457, 214.261352)"><g><path d="M 9.15625 0 L 1.8125 0 L 1.8125 -13.1875 L 9.15625 -13.1875 L 9.15625 -11.828125 L 3.34375 -11.828125 L 3.34375 -7.578125 L 8.8125 -7.578125 L 8.8125 -6.21875 L 3.34375 -6.21875 L 3.34375 -1.375 L 9.15625 -1.375 Z M 9.15625 0 "/></g></g></g><g fill="#ffffff" fill-opacity="1"><g transform="translate(211.351147, 164.864205)"><g><path d="M -3.0625 16.046875 L -3.0625 8.96875 L -9.828125 8.96875 L -9.828125 8.046875 L -3.0625 8.046875 L -3.0625 0.921875 L -10.5625 0.921875 L -10.5625 0 L -1.984375 0 L -1.984375 16.953125 L -10.5625 16.953125 L -10.5625 16.046875 Z M -3.0625 16.046875 "/></g></g></g></svg>