<svg xmlns="http://www.w3.org/2000/svg" xmlns:xlink="http://www.w3.org/1999/xlink" width="500" zoomAndPan="magnify" viewBox="0 0 375 374.999991" height="500" preserveAspectRatio="xMidYMid meet" version="1.0"><defs><g/><clipPath id="74e2d4d342"><path d="M 165.570312 110.839844 L 259.320312 110.839844 L 259.320312 242.089844 L 165.570312 242.089844 Z M 165.570312 110.839844 " clip-rule="nonzero"/></clipPath></defs><rect x="-37.5" width="450" fill="#ffffff" y="-37.499999" height="449.999989" fill-opacity="1"/><rect x="-37.5" width="450" fill="#000000" y="-37.499999" height="449.999989" fill-opacity="1"/><g clip-path="url(#74e2d4d342)"><path fill="#ffffff" d="M 179.714844 237.863281 C 180.875 236.089844 203.714844 203.523438 205.664062 200.761719 C 207.605469 198 209.824219 194.859375 212.316406 191.34375 C 214.808594 187.832031 217.382812 184.214844 220.042969 180.496094 C 222.703125 176.777344 225.347656 173.109375 227.976562 169.492188 C 230.601562 165.878906 232.988281 162.570312 235.140625 159.566406 C 237.289062 156.5625 239.132812 154.019531 240.667969 151.9375 C 242.203125 149.859375 243.210938 148.476562 243.6875 147.792969 C 243.949219 147.316406 244.34375 147.078125 244.871094 147.078125 C 245.398438 147.078125 245.792969 147.28125 246.058594 147.691406 C 246.320312 148.097656 246.453125 148.542969 246.453125 149.019531 L 246.453125 210.023438 C 246.453125 210.433594 246.285156 210.792969 245.957031 211.097656 C 245.628906 211.40625 245.265625 211.558594 244.863281 211.558594 C 244.46875 211.558594 244.105469 211.421875 243.773438 211.148438 C 243.445312 210.878906 243.277344 210.5 243.277344 210.023438 L 243.277344 153.726562 L 180.839844 241.75 C 180.570312 242.160156 180.15625 242.363281 179.613281 242.363281 C 179.203125 242.363281 178.832031 242.210938 178.488281 241.902344 C 178.148438 241.59375 177.976562 241.238281 177.976562 240.828125 C 177.976562 240.625 178.558594 239.636719 179.714844 237.863281 Z M 166.152344 130.59375 C 166.523438 130.324219 166.921875 130.1875 167.328125 130.1875 C 167.808594 130.1875 168.183594 130.390625 168.457031 130.800781 L 205.917969 183.410156 L 256.585938 111.558594 C 256.847656 111.078125 257.273438 110.839844 257.867188 110.839844 C 258.328125 110.839844 258.691406 110.992188 258.953125 111.300781 C 259.214844 111.609375 259.347656 111.964844 259.347656 112.375 C 259.347656 112.785156 259.242188 113.125 259.039062 113.398438 L 189.640625 211.453125 C 189.371094 211.863281 188.960938 212.066406 188.414062 212.066406 C 188.007812 212.066406 187.632812 211.914062 187.289062 211.605469 C 186.949219 211.296875 186.777344 210.90625 186.777344 210.429688 C 186.777344 210.160156 187.171875 209.441406 187.953125 208.28125 C 188.742188 207.121094 189.710938 205.707031 190.871094 204.03125 C 192.035156 202.363281 193.328125 200.585938 194.765625 198.710938 C 196.199219 196.835938 197.546875 195.027344 198.808594 193.285156 C 200.074219 191.546875 201.179688 190.027344 202.132812 188.730469 C 203.089844 187.433594 203.703125 186.546875 203.976562 186.066406 L 168.660156 136.632812 L 168.660156 210.53125 C 168.660156 210.941406 168.523438 211.300781 168.25 211.605469 C 167.980469 211.914062 167.636719 212.066406 167.230469 212.066406 C 166.820312 212.066406 166.460938 211.914062 166.15625 211.605469 C 165.847656 211.296875 165.695312 210.941406 165.695312 210.53125 L 165.695312 132.230469 C 165.625 132.164062 165.589844 131.960938 165.589844 131.617188 C 165.589844 131.207031 165.777344 130.871094 166.152344 130.59375 Z M 166.152344 130.59375 " fill-opacity="1" fill-rule="nonzero"/></g><g fill="#ffffff" fill-opacity="1"><g transform="translate(250.056403, 174.613645)"><g><path d="M -6.796875 35.5625 L -6.796875 19.859375 L -21.796875 19.859375 L -21.796875 17.828125 L -6.796875 17.828125 L -6.796875 2.03125 L -23.40625 2.03125 L -23.40625 0 L -4.390625 0 L -4.390625 37.59375 L -23.40625 37.59375 L -23.40625 35.5625 Z M -6.796875 35.5625 "/></g></g></g></svg>