<svg xmlns="http://www.w3.org/2000/svg" xmlns:xlink="http://www.w3.org/1999/xlink" width="500" zoomAndPan="magnify" viewBox="0 0 375 374.999991" height="500" preserveAspectRatio="xMidYMid meet" version="1.0"><defs><g/><clipPath id="32a3545b60"><path d="M 165.570312 102.914062 L 265.320312 102.914062 L 265.320312 242.414062 L 165.570312 242.414062 Z M 165.570312 102.914062 " clip-rule="nonzero"/></clipPath></defs><rect x="-37.5" width="450" fill="#ffffff" y="-37.499999" height="449.999989" fill-opacity="1"/><rect x="-37.5" width="450" fill="#ffffff" y="-37.499999" height="449.999989" fill-opacity="1"/><g clip-path="url(#32a3545b60)"><path fill="#000000" d="M 180.609375 237.65625 C 181.84375 235.773438 206.128906 201.226562 208.203125 198.296875 C 210.269531 195.367188 212.625 192.039062 215.277344 188.308594 C 217.925781 184.582031 220.664062 180.746094 223.492188 176.800781 C 226.324219 172.855469 229.136719 168.96875 231.929688 165.128906 C 234.722656 161.296875 237.261719 157.785156 239.546875 154.597656 C 241.832031 151.414062 243.792969 148.71875 245.425781 146.507812 C 247.058594 144.300781 248.128906 142.835938 248.636719 142.113281 C 248.914062 141.605469 249.335938 141.351562 249.894531 141.351562 C 250.457031 141.351562 250.875 141.566406 251.15625 142 C 251.4375 142.433594 251.574219 142.90625 251.574219 143.414062 L 251.574219 208.125 C 251.574219 208.558594 251.398438 208.941406 251.050781 209.261719 C 250.699219 209.589844 250.3125 209.75 249.886719 209.75 C 249.46875 209.75 249.082031 209.609375 248.726562 209.316406 C 248.378906 209.03125 248.199219 208.628906 248.199219 208.125 L 248.199219 148.40625 L 181.808594 241.78125 C 181.519531 242.214844 181.082031 242.429688 180.503906 242.429688 C 180.066406 242.429688 179.667969 242.269531 179.304688 241.941406 C 178.945312 241.613281 178.757812 241.234375 178.757812 240.800781 C 178.757812 240.585938 179.378906 239.539062 180.609375 237.65625 Z M 166.1875 123.867188 C 166.585938 123.582031 167.003906 123.433594 167.441406 123.433594 C 167.949219 123.433594 168.347656 123.652344 168.636719 124.085938 L 208.472656 179.894531 L 262.351562 103.671875 C 262.628906 103.164062 263.082031 102.914062 263.714844 102.914062 C 264.203125 102.914062 264.589844 103.074219 264.867188 103.402344 C 265.148438 103.726562 265.289062 104.105469 265.289062 104.539062 C 265.289062 104.972656 265.175781 105.339844 264.960938 105.625 L 191.167969 209.640625 C 190.878906 210.074219 190.441406 210.292969 189.863281 210.292969 C 189.425781 210.292969 189.027344 210.128906 188.664062 209.804688 C 188.304688 209.476562 188.117188 209.0625 188.117188 208.554688 C 188.117188 208.265625 188.539062 207.507812 189.371094 206.273438 C 190.207031 205.042969 191.238281 203.542969 192.472656 201.769531 C 193.707031 199.996094 195.085938 198.113281 196.613281 196.121094 C 198.136719 194.132812 199.570312 192.214844 200.914062 190.367188 C 202.257812 188.523438 203.433594 186.914062 204.449219 185.535156 C 205.46875 184.160156 206.121094 183.21875 206.410156 182.710938 L 168.855469 130.273438 L 168.855469 208.664062 C 168.855469 209.097656 168.710938 209.480469 168.417969 209.804688 C 168.132812 210.128906 167.765625 210.292969 167.332031 210.292969 C 166.898438 210.292969 166.515625 210.128906 166.191406 209.804688 C 165.863281 209.476562 165.699219 209.097656 165.699219 208.664062 L 165.699219 125.601562 C 165.625 125.535156 165.589844 125.316406 165.589844 124.953125 C 165.589844 124.519531 165.789062 124.160156 166.1875 123.867188 Z M 166.1875 123.867188 " fill-opacity="1" fill-rule="nonzero"/></g><g fill="#000000" fill-opacity="1"><g transform="translate(255.951081, 167.990062)"><g><path d="M -7.515625 39.328125 L -7.515625 21.96875 L -24.109375 21.96875 L -24.109375 19.71875 L -7.515625 19.71875 L -7.515625 2.25 L -25.890625 2.25 L -25.890625 0 L -4.859375 0 L -4.859375 41.578125 L -25.890625 41.578125 L -25.890625 39.328125 Z M -7.515625 39.328125 "/></g></g></g></svg>