<svg xmlns="http://www.w3.org/2000/svg" xmlns:xlink="http://www.w3.org/1999/xlink" width="500" zoomAndPan="magnify" viewBox="0 0 375 374.999991" height="500" preserveAspectRatio="xMidYMid meet" version="1.0"><defs><g/></defs><rect x="-37.5" width="450" fill="#ffffff" y="-37.499999" height="449.999989" fill-opacity="1"/><rect x="-37.5" width="450" fill="#ffffff" y="-37.499999" height="449.999989" fill-opacity="1"/><g fill="#000000" fill-opacity="1"><g transform="translate(90.728527, 214.261294)"><g><path d="M 7.640625 0 L 3.171875 -11.6875 L 3.109375 -11.6875 C 3.191406 -10.757812 3.234375 -9.660156 3.234375 -8.390625 L 3.234375 0 L 1.8125 0 L 1.8125 -13.1875 L 4.125 -13.1875 L 8.296875 -2.3125 L 8.375 -2.3125 L 12.578125 -13.1875 L 14.875 -13.1875 L 14.875 0 L 13.34375 0 L 13.34375 -8.5 C 13.34375 -9.46875 13.382812 -10.523438 13.46875 -11.671875 L 13.390625 -11.671875 L 8.875 0 Z M 7.640625 0 "/></g></g></g><g fill="#000000" fill-opacity="1"><g transform="translate(113.70284, 214.261294)"><g><path d="M 10.09375 0 L 8.453125 -4.1875 L 3.171875 -4.1875 L 1.546875 0 L 0 0 L 5.21875 -13.234375 L 6.5 -13.234375 L 11.6875 0 Z M 7.984375 -5.578125 L 6.453125 -9.65625 C 6.253906 -10.175781 6.046875 -10.8125 5.828125 -11.5625 C 5.703125 -10.976562 5.515625 -10.34375 5.265625 -9.65625 L 3.71875 -5.578125 Z M 7.984375 -5.578125 "/></g></g></g><g fill="#000000" fill-opacity="1"><g transform="translate(131.690175, 214.261294)"><g><path d="M 9.34375 -13.1875 L 11 -13.1875 L 6.234375 0 L 4.71875 0 L 0 -13.1875 L 1.625 -13.1875 L 4.65625 -4.65625 C 5 -3.675781 5.273438 -2.722656 5.484375 -1.796875 C 5.703125 -2.765625 5.984375 -3.734375 6.328125 -4.703125 Z M 9.34375 -13.1875 "/></g></g></g><g fill="#000000" fill-opacity="1"><g transform="translate(148.983126, 214.261294)"><g><path d="M 1.8125 0 L 1.8125 -13.1875 L 3.34375 -13.1875 L 3.34375 0 Z M 1.8125 0 "/></g></g></g><g fill="#000000" fill-opacity="1"><g transform="translate(160.432388, 214.261294)"><g><path d="M 10.09375 0 L 8.453125 -4.1875 L 3.171875 -4.1875 L 1.546875 0 L 0 0 L 5.21875 -13.234375 L 6.5 -13.234375 L 11.6875 0 Z M 7.984375 -5.578125 L 6.453125 -9.65625 C 6.253906 -10.175781 6.046875 -10.8125 5.828125 -11.5625 C 5.703125 -10.976562 5.515625 -10.34375 5.265625 -9.65625 L 3.71875 -5.578125 Z M 7.984375 -5.578125 "/></g></g></g><g fill="#000000" fill-opacity="1"><g transform="translate(178.419719, 214.261294)"><g><path d="M 1.8125 0 L 1.8125 -13.1875 L 3.34375 -13.1875 L 3.34375 -1.390625 L 9.15625 -1.390625 L 9.15625 0 Z M 1.8125 0 "/></g></g></g><g fill="#000000" fill-opacity="1"><g transform="translate(194.305859, 214.261294)"><g><path d="M 13.25 -6.609375 C 13.25 -4.492188 12.71875 -2.832031 11.65625 -1.625 C 10.59375 -0.414062 9.109375 0.1875 7.203125 0.1875 C 5.265625 0.1875 3.765625 -0.40625 2.703125 -1.59375 C 1.648438 -2.78125 1.125 -4.457031 1.125 -6.625 C 1.125 -8.769531 1.648438 -10.429688 2.703125 -11.609375 C 3.765625 -12.796875 5.269531 -13.390625 7.21875 -13.390625 C 9.113281 -13.390625 10.59375 -12.785156 11.65625 -11.578125 C 12.71875 -10.378906 13.25 -8.722656 13.25 -6.609375 Z M 2.75 -6.609375 C 2.75 -4.828125 3.128906 -3.472656 3.890625 -2.546875 C 4.648438 -1.617188 5.753906 -1.15625 7.203125 -1.15625 C 8.660156 -1.15625 9.765625 -1.613281 10.515625 -2.53125 C 11.265625 -3.457031 11.640625 -4.816406 11.640625 -6.609375 C 11.640625 -8.378906 11.265625 -9.722656 10.515625 -10.640625 C 9.773438 -11.554688 8.675781 -12.015625 7.21875 -12.015625 C 5.757812 -12.015625 4.648438 -11.550781 3.890625 -10.625 C 3.128906 -9.707031 2.75 -8.367188 2.75 -6.609375 Z M 2.75 -6.609375 "/></g></g></g><g fill="#000000" fill-opacity="1"><g transform="translate(214.989595, 214.261294)"><g/></g></g><g fill="#000000" fill-opacity="1"><g transform="translate(226.087146, 214.261294)"><g><path d="M 9.15625 0 L 1.8125 0 L 1.8125 -13.1875 L 9.15625 -13.1875 L 9.15625 -11.828125 L 3.34375 -11.828125 L 3.34375 -7.578125 L 8.8125 -7.578125 L 8.8125 -6.21875 L 3.34375 -6.21875 L 3.34375 -1.375 L 9.15625 -1.375 Z M 9.15625 0 "/></g></g></g><g fill="#000000" fill-opacity="1"><g transform="translate(242.658657, 214.261294)"><g><path d="M 1.8125 0 L 1.8125 -13.1875 L 3.34375 -13.1875 L 3.34375 -1.390625 L 9.15625 -1.390625 L 9.15625 0 Z M 1.8125 0 "/></g></g></g><g fill="#000000" fill-opacity="1"><g transform="translate(258.544797, 214.261294)"><g><path d="M 1.8125 0 L 1.8125 -13.1875 L 3.34375 -13.1875 L 3.34375 0 Z M 1.8125 0 "/></g></g></g><g fill="#000000" fill-opacity="1"><g transform="translate(269.994062, 214.261294)"><g><path d="M 5.875 0 L 4.34375 0 L 4.34375 -11.828125 L 0.15625 -11.828125 L 0.15625 -13.1875 L 10.046875 -13.1875 L 10.046875 -11.828125 L 5.875 -11.828125 Z M 5.875 0 "/></g></g></g><g fill="#000000" fill-opacity="1"><g transform="translate(286.511457, 214.261294)"><g><path d="M 9.15625 0 L 1.8125 0 L 1.8125 -13.1875 L 9.15625 -13.1875 L 9.15625 -11.828125 L 3.34375 -11.828125 L 3.34375 -7.578125 L 8.8125 -7.578125 L 8.8125 -6.21875 L 3.34375 -6.21875 L 3.34375 -1.375 L 9.15625 -1.375 Z M 9.15625 0 "/></g></g></g></svg>